<svg xmlns="http://www.w3.org/2000/svg" aria-hidden="true" viewBox="0 0 19 20" fill="none"><path d="M12.3908 1.17651H6.46286H2.49416C1.76644 1.17651 1.17651 1.76644 1.17651 2.49416V18.1177C1.17651 18.8454 1.76644 19.4353 2.49416 19.4353H16.0471C16.7748 19.4353 17.3647 18.8454 17.3647 18.1177C17.3647 13.7296 17.3647 10.1121 17.3647 7.26525" stroke="#444444" stroke-linecap="round" stroke-linejoin="round"/><path fill-rule="evenodd" clip-rule="evenodd" d="M17.4394 2.24297C17.973 2.77661 18.0183 3.59656 17.5405 4.07438L7.35812 14.2567L4.59613 15.0823L5.42564 12.3242L15.608 2.1419C16.0858 1.66408 16.9057 1.70933 17.4394 2.24297Z" stroke="#444444"/><path d="M5.88232 12.353L7.05879 13.5295" stroke="#444444" stroke-linecap="square"/><path d="M15.2942 3.52942L16.4707 4.70589" stroke="#444444" stroke-linecap="square"/></svg>