<svg xmlns="http://www.w3.org/2000/svg" style="width:16px" aria-hidden="true" viewBox="0 0 15 15" fill="currentColor"><path fill-rule="evenodd" clip-rule="evenodd" d="M13.425 0H1.668L0.015 6.554L0 6.676C0 7.725 0.638 8.609 1.519 8.935V14.999H13.48V8.935C14.361 8.61 15 7.725 15 6.676L13.425 0ZM9.861 1L10.494 6.728C10.469 7.475 9.922 8.076 9.249 8.076C8.561 8.076 8 7.45 7.999 6.678L7.957 1.001H9.861V1ZM6.957 0.999H5.01L4.506 6.733C4.535 7.477 5.079 8.075 5.749 8.075C6.438 8.075 6.999 7.447 6.999 6.675L6.957 0.999ZM1.001 6.734L2.447 1H4.006L3.507 6.676H3.5C3.5 7.448 2.939 8.075 2.249 8.075C1.578 8.076 1.028 7.479 1.001 6.734ZM6.45 13.999H8.55V11.728C8.55 11.15 8.079 10.678 7.5 10.678C6.921 10.678 6.45 11.15 6.45 11.728V13.999ZM12.48 13.999H9.6V11.728C9.6 10.572 8.658 9.628 7.5 9.628C6.342 9.628 5.4 10.571 5.4 11.728V13.999H2.519V9.046C3.118 8.969 3.641 8.644 4 8.165C4.413 8.716 5.039 9.075 5.749 9.075C6.459 9.075 7.086 8.716 7.499 8.165C7.912 8.716 8.539 9.075 9.249 9.075C9.96 9.075 10.587 8.715 11 8.163C11.359 8.642 11.882 8.968 12.48 9.046V13.999ZM11.501 6.678C11.501 7.45 12.063 8.076 12.751 8.076C13.423 8.076 13.975 7.477 13.999 6.732L12.637 1.001H10.868L11.494 6.678H11.499H11.501Z" fill="currentColor"/></svg>